# AST/ASF file generated using VICON BodyLanguage
# -----------------------------------------------
:version 1.10
:name VICON
:units
  mass 1.0
  length 0.45
  angle deg
:documentation
   .ast/.asf automatically generated from VICON data using
   VICON BodyBuilder and BodyLanguage model FoxedUp or BRILLIANT.MOD
:root
   order TX TY TZ RX RY RZ
   axis XYZ
   position 0 0 0  
   orientation 0 0 0 
:bonedata
  begin
     id 1 
     name lhipjoint
     direction 0.537252 -0.787203 0.302774 
     length 2.29576 
     axis 0 0 0  XYZ
  end
  begin
     id 2 
     name lfemur
     direction 0.34202 -0.939693 0  
     length 7.31114  
     axis 0 0 20  XYZ
    dof rx ry rz
    limits (-160.0 20.0)
           (-70.0 70.0)
           (-60.0 70.0)
  end
  begin
     id 3 
     name ltibia
     direction 0.34202 -0.939693 0   
     length 8.36008   
     axis 0 0 20   XYZ
    dof rx
    limits (-10.0 170.0)
  end
  begin
     id 4 
     name lfoot
     direction 0.0969116 -0.266263 0.959016   
     length 2.16704   
     axis -90 7.62852e-016 20   XYZ
    dof rx rz
    limits (-45.0 90.0)
           (-70.0 20.0)
  end
  begin
     id 5 
     name ltoes
     direction 1.53563e-011 -4.21779e-011 1   
     length 1.08338   
     axis -90 7.62852e-016 20   XYZ
    dof rx
    limits (-90.0 20.0)
  end
  begin
     id 6 
     name rhipjoint
     direction -0.588228 -0.754791 0.290308   
     length 2.39434  
     axis 0 0 0  XYZ 
  end
  begin
     id 7 
     name rfemur
     direction -0.34202 -0.939693 0   
     length 7.45207   
     axis 0 0 -20   XYZ
    dof rx ry rz
    limits (-160.0 20.0)
           (-70.0 70.0)
           (-70.0 60.0)
  end
  begin
     id 8 
     name rtibia
     direction -0.34202 -0.939693 0   
     length 8.03565   
     axis 0 0 -20   XYZ
    dof rx
    limits (-10.0 170.0)
 end
 begin
     id 9 
     name rfoot
     direction -0.107009 -0.294004 0.949795   
     length 2.11509  
     axis -90 -7.62852e-016 -20   XYZ
    dof rx rz
    limits (-45.0 90.0)
           (-20.0 70.0)
  end
  begin
     id 10 
     name rtoes
     direction -1.53533e-011 -4.22004e-011 1   
     length 1.05493   
     axis -90 -7.62852e-016 -20   XYZ
    dof rx
    limits (-90.0 20.0)
  end
  begin
     id 11 
     name lowerback
     direction -0.0115208 0.997969 -0.0626515   
     length 2.03153   
     axis 0 0 0   XYZ
    dof rx ry rz
    limits (-20.0 45.0)
           (-30.0 30.0)
           (-30.0 30.0)
  end
  begin
     id 12 
     name upperback
     direction -0.00423475 0.999974 -0.00583614   
     length 2.03619   
     axis 0 0 0   XYZ
    dof rx ry rz
    limits (-20.0 45.0)
           (-30.0 30.0)
           (-30.0 30.0)
  end
  begin
     id 13 
     name thorax
     direction 0.00289429 0.999728 0.0231573   
     length 2.03921   
     axis 0 0 0   XYZ
    dof rx ry rz
    limits (-20.0 45.0)
           (-30.0 30.0)
           (-30.0 30.0)
  end
  begin
     id 14 
     name lowerneck
     direction 0.0188995 0.987777 0.154721   
     length 1.78836   
     axis 0 0 0   XYZ
    dof rx ry rz
    limits (-20.0 45.0)
           (-30.0 30.0)
           (-30.0 30.0)
  end
  begin
     id 15 
     name upperneck
     direction -0.00612612 0.992995 -0.118   
     length 1.81789   
     axis 0 0 0   XYZ
    dof rx ry rz
    limits (-20.0 45.0)
           (-30.0 30.0)
           (-30.0 30.0)
  end
  begin
     id 16
     name head
     direction -0.00420226 0.998397 -0.0564482  
     length 1.82234  
     axis 0 0 0   XYZ
    dof rx ry rz
    limits (-20.0 45.0)
           (-30.0 30.0)
           (-30.0 30.0)
  end
  begin
     id 17 
     name lclavicle
     direction 0.916488 0.396539 0.0529676  
     length 3.51732  
     axis 0 0 0   XYZ
    dof ry rz
    limits (-20.0 10.0)
           (0.0 20.0)
  end
  begin
     id 18 
     name lhumerus
     direction 1 -4.4896e-011 8.36962e-028   
     length 5.45077   
     axis 180 -30 -90   XYZ
    dof rx ry rz
    limits (-60.0 90.0)
           (-90.0 90.0)
           (-90.0 90.0)
  end
  begin
     id 19
     name lradius
     direction 1 -4.48962e-011 3.01407e-027   
     length 3.05488   
     axis 180 -30 -90   XYZ
    dof rx
    limits (-10.0 170.0)
  end
  begin
     id 20
     name lwrist
     direction 1 -4.49002e-011 4.72961e-027   
     length 1.52744   
     axis -2.72261e-015 90 90   XYZ
    dof ry
    limits (-180.0 0.0)
 end
  begin
     id 21 
     name lhand
     direction 1 -4.4899e-011 9.45681e-027   
     length 0.638818   
     axis -6.0311e-015 90 90   XYZ
    dof rx rz
    limits (-90.0 90.0)
           (-45.0 45.0)
  end
  begin
     id 22 
     name lfingers
     direction 1 -4.48871e-011 1.88632e-026   
     length 0.515032   
     axis -1.20625e-014 90 90   XYZ
    dof rx
    limits (0.0 90.0)
  end
  begin
     id 23
     name lthumb
     direction 0.707107 -6.34964e-011 0.707107   
     length 0.739485   
     axis -90 45 6.32835e-014   XYZ
    dof rx rz
    limits (-45.0 45.0)
           (-45.0 45.0)
  end
  begin
     id 24 
     name rclavicle
     direction -0.949427 0.303202 0.0815894   
     length 3.76167  
     axis 0 0 0   XYZ 
    dof ry rz
    limits (-10.0 20.0)
           (-20.0 0.0)
  end
  begin
     id 25 
     name rhumerus
     direction -1 -4.48971e-011 -6.43969e-018  
     length 4.88702   
     axis 180 30 90   XYZ
    dof rx ry rz
    limits (-90.0 60.0)
           (-90.0 90.0)
           (-90.0 90.0)
  end
  begin
     id 26 
     name rradius
     direction -1 -4.48987e-011 5.46662e-027   
     length 3.22603   
     axis 180 30 90   XYZ
    dof rx
    limits (-10.0 170.0)
  end
  begin
     id 27 
     name rwrist
     direction -1 -4.48956e-011 4.72476e-027   
     length 1.61302   
     axis -2.72261e-015 -90 -90   XYZ
    dof ry
    limits (-180.0 0.0)
  end
  begin
     id 28
     name rhand
     direction -1 -4.4889e-011 9.43571e-027   
     length 0.716293   
     axis -6.0311e-015 -90 -90   XYZ
    dof rx rz
    limits (-90.0 90.0)
           (-45.0 45.0)
  end
  begin
     id 29
     name rfingers
     direction -1 -4.48887e-011 1.88701e-026   
     length 0.577494   
     axis -1.20625e-014 -90 -90   XYZ
    dof rx
    limits (0.0 90.0)
  end
  begin
     id 30
     name rthumb
     direction -0.707107 -6.34825e-011 0.707107   
     length 0.829169   
     axis -90 -45 -6.32835e-014   XYZ
    dof rx rz
    limits (-45.0 45.0)
           (-45.0 45.0)
  end
:hierarchy
  begin
    root lhipjoint rhipjoint lowerback
    lhipjoint lfemur
    lfemur ltibia
    ltibia lfoot
    lfoot ltoes
    rhipjoint rfemur
    rfemur rtibia
    rtibia rfoot
    rfoot rtoes
    lowerback upperback
    upperback thorax
    thorax lowerneck lclavicle rclavicle
    lowerneck upperneck
    upperneck head
    lclavicle lhumerus
    lhumerus lradius
    lradius lwrist
    lwrist lhand lthumb
    lhand lfingers
    rclavicle rhumerus
    rhumerus rradius
    rradius rwrist
    rwrist rhand rthumb
    rhand rfingers
  end

#!OML:ASF F:\VICON\USERDATA\INSTALL\rory3\rory3.ASF
:FULLY-SPECIFIED
:DEGREES
702
root 1.33583 18.5329 0.363094 88.8767 88.3605 75.7541
lowerback -9.98257 0.666182 -1.90205
upperback -4.034 1.22203 -0.848007
thorax 1.3855 0.681454 0.328322
lowerneck -19.4905 -0.530188 2.86888
upperneck 21.0492 -1.50722 0.0429563
head 9.8937 -0.40448 -0.663258
rclavicle 7.9048e-016 -5.96354e-015
rhumerus -43.6059 16.557 -93.4613
rradius 40.9891
rwrist 2.70916
rhand -11.7673 7.08065
rfingers 7.12502
rthumb 14.2812 -22.4083
lclavicle 7.9048e-016 -5.96354e-015
lhumerus -96.7261 -43.0843 122.147
lradius 88.5293
lwrist -6.41131
lhand -32.5314 6.62663
lfingers 7.12502
lthumb -5.76175 36.5283
rfemur -6.77695 -6.03404 15.5627
rtibia -1.90833e-014
rfoot -5.39829 6.13361
rtoes -11.2759
lfemur -15.0753 7.63956 -19.1931
ltibia 15.6447
lfoot -12.7862 -3.90351
ltoes -25.6034
703
root 1.33225 18.533 0.364816 86.4031 88.376 73.3007
lowerback -9.94441 0.657642 -1.90057
upperback -4.05022 1.20859 -0.817495
thorax 1.34739 0.675352 0.35669
lowerneck -19.3275 -0.252068 3.06793
upperneck 21.2001 -1.09736 -0.248527
head 9.92036 -0.22993 -0.74101
rclavicle -1.0871e-017 -7.85199e-015
rhumerus -43.6492 16.7879 -93.6151
rradius 40.8587
rwrist 2.47517
rhand -11.9302 6.93218
rfingers 7.12502
rthumb 14.1242 -22.5678
lclavicle -1.0871e-017 -7.85199e-015
lhumerus -96.5948 -43.0691 122.202
lradius 88.4054
lwrist -6.47378
lhand -32.3997 6.73003
lfingers 7.12502
lthumb -5.63468 36.6351
rfemur -6.78674 -5.96076 15.5899
rtibia -2.78299e-014
rfoot -5.35878 6.15325
rtoes -11.0212
lfemur -15.0745 7.80197 -19.178
ltibia 15.68
lfoot -12.8861 -3.96429
ltoes -26.225
704
root 1.33087 18.5322 0.365221 84.582 88.3686 71.4778
lowerback -9.95275 0.636648 -1.88956
upperback -4.06283 1.17983 -0.804915
thorax 1.33942 0.661301 0.3604
lowerneck -19.197 0.0625953 3.27878
upperneck 21.4397 -0.634167 -0.555469
head 9.98798 -0.0294502 -0.819487
rclavicle -4.44781e-015 -2.5842e-015
rhumerus -43.5834 16.7549 -93.5476
rradius 40.6368
rwrist 3.28256
rhand -12.0332 7.19812
rfingers 7.12502
rthumb 14.025 -22.3087
lclavicle -4.44781e-015 -2.5842e-015
lhumerus -96.5972 -43.0633 122.298
lradius 88.3505
lwrist -6.52418
lhand -32.3986 6.9532
lfingers 7.12502
lthumb -5.6336 36.8583
rfemur -6.79712 -5.9084 15.5884
rtibia -1.27222e-014
rfoot -5.33584 6.16297
rtoes -11.0765
lfemur -15.0573 7.88219 -19.1796
ltibia 15.6861
lfoot -12.9067 -4.00029
ltoes -26.2749
705
root 1.32935 18.5317 0.365662 83.5697 88.3384 70.4793
lowerback -9.97817 0.677588 -1.82249
upperback -4.03267 1.22971 -0.866715
thorax 1.38647 0.68432 0.265115
lowerneck -19.1303 0.34472 3.50308
upperneck 21.667 -0.226 -0.844433
head 10.0647 0.148364 -0.901895
rclavicle -7.02657e-015 1.26228e-014
rhumerus -43.5827 16.7989 -93.7311
rradius 40.502
rwrist 2.97434
rhand -12.6723 7.09127
rfingers 7.12502
rthumb 13.4091 -22.4572
lclavicle -7.02657e-015 1.26228e-014
lhumerus -96.6836 -43.2797 122.434
lradius 88.343
lwrist -6.58028
lhand -32.4351 7.08909
lfingers 7.12502
lthumb -5.66879 36.9933
rfemur -6.79529 -5.87566 15.559
rtibia 2.94201e-014
rfoot -5.32202 6.15012
rtoes -10.8475
lfemur -15.0382 7.8743 -19.1931
ltibia 15.6855
lfoot -12.8699 -4.00417
ltoes -26.138
706
root 1.32512 18.5313 0.36892 79.9684 88.2948 66.873
lowerback -10.0027 0.74545 -1.75771
upperback -4.02136 1.31626 -0.941318
thorax 1.4134 0.726241 0.161711
lowerneck -18.9992 0.672037 3.78886
upperneck 21.8691 0.231871 -1.13048
head 10.1247 0.354613 -0.9863
rclavicle -1.06691e-015 -1.78906e-015
rhumerus -43.577 16.8186 -93.9145
rradius 40.3981
rwrist 2.68117
rhand -12.7003 6.84372
rfingers 7.12502
rthumb 13.3821 -22.7065
lclavicle -1.06691e-015 -1.78906e-015
lhumerus -96.7152 -43.5237 122.481
lradius 88.3465
lwrist -6.54873
lhand -32.5846 7.20358
lfingers 7.12502
lthumb -5.81321 37.1038
rfemur -6.83371 -5.76124 15.5492
rtibia 5.56597e-015
rfoot -5.3441 6.14192
rtoes -10.7369
lfemur -15.0461 7.89041 -19.1889
ltibia 15.6859
lfoot -12.9672 -3.93392
ltoes -26.4054
707
root 1.32261 18.5305 0.372037 77.3669 88.2673 64.2832
lowerback -10.0419 0.800569 -1.70021
upperback -3.99603 1.38586 -0.985769
thorax 1.4626 0.759483 0.0922129
lowerneck -18.8761 1.05834 4.11558
upperneck 22.118 0.792783 -1.52936
head 10.2097 0.599117 -1.10323
rclavicle -1.14472e-014 -2.78299e-015
rhumerus -43.6242 16.9412 -94.1219
rradius 40.1501
rwrist 3.14758
rhand -13.7298 6.92232
rfingers 7.12502
rthumb 12.3897 -22.6905
lclavicle -1.14472e-014 -2.78299e-015
lhumerus -96.6481 -43.8102 122.477
lradius 88.3211
lwrist -6.47899
lhand -32.6636 7.05124
lfingers 7.12502
lthumb -5.88946 36.9494
rfemur -6.84474 -5.67642 15.5476
rtibia -2.54444e-014
rfoot -5.32299 6.12767
rtoes -10.5021
lfemur -15.0221 7.95387 -19.1707
ltibia 15.6611
lfoot -13.1733 -3.95617
ltoes -26.7398
708
root 1.32253 18.5315 0.374724 74.7143 88.2761 61.628
lowerback -10.1139 0.838386 -1.61753
upperback -3.96965 1.43061 -1.0143
thorax 1.53154 0.780175 0.0230322
lowerneck -18.7343 1.4977 4.46665
upperneck 22.3368 1.42598 -1.93185
head 10.2882 0.878066 -1.21521
rclavicle -6.80372e-015 1.85864e-014
rhumerus -43.4728 16.7457 -94.0009
rradius 40.1995
rwrist 2.65518
rhand -12.5189 6.83547
rfingers 7.12502
rthumb 13.5569 -22.7032
lclavicle -6.80372e-015 1.85864e-014
lhumerus -96.5507 -43.9917 122.427
lradius 88.2484
lwrist -6.45513
lhand -32.8831 6.83357
lfingers 7.12502
lthumb -6.10133 36.7257
rfemur -6.85708 -5.598 15.5918
rtibia 1.51076e-014
rfoot -5.30093 6.12431
rtoes -10.6478
lfemur -15.0055 8.02949 -19.1261
ltibia 15.6421
lfoot -13.1586 -3.95172
ltoes -26.8163
709
root 1.3214 18.5324 0.376304 73.9304 88.2228 60.8505
lowerback -10.146 0.862186 -1.61447
upperback -3.94747 1.46354 -1.05233
thorax 1.57279 0.795793 -0.0133589
lowerneck -18.5993 1.97379 4.86913
upperneck 22.5529 2.1282 -2.44576
head 10.3773 1.17954 -1.36553
rclavicle 8.84281e-015 -1.88845e-015
rhumerus -43.3589 16.6551 -93.9555
rradius 40.0939
rwrist 2.40776
rhand -12.111 7.03761
rfingers 7.12502
rthumb 13.9501 -22.4744
lclavicle 8.84281e-015 -1.88845e-015
lhumerus -96.5215 -44.0804 122.397
lradius 88.1995
lwrist -6.49819
lhand -33.1691 6.78592
lfingers 7.12502
lthumb -6.37749 36.6699
rfemur -6.86279 -5.55948 15.5495
rtibia 3.02153e-014
rfoot -5.2852 6.14058
rtoes -10.6901
lfemur -14.9952 7.97613 -19.1538
ltibia 15.6353
lfoot -12.9352 -3.93606
ltoes -25.9395
710
root 1.31875 18.5323 0.378866 72.998 88.1792 59.9368
lowerback -10.1352 0.919469 -1.56508
upperback -3.9453 1.53655 -1.12201
thorax 1.57158 0.831567 -0.105071
lowerneck -18.4193 2.50519 5.33086
upperneck 22.7716 2.91567 -3.01852
head 10.4725 1.51919 -1.53451
rclavicle -6.11884e-015 2.0276e-014
rhumerus -43.3542 16.6009 -94.0421
rradius 39.9377
rwrist 2.65683
rhand -12.3566 7.16012
rfingers 7.12502
rthumb 13.7133 -22.368
lclavicle -6.11884e-015 2.0276e-014
lhumerus -96.5896 -44.2197 122.438
lradius 88.1805
lwrist -6.47171
lhand -33.1966 6.70791
lfingers 7.12502
lthumb -6.40405 36.5911
rfemur -6.85502 -5.51554 15.527
rtibia 1.66979e-014
rfoot -5.27871 6.10652
rtoes -10.7647
lfemur -14.9711 7.87125 -19.1522
ltibia 15.6351
lfoot -12.8211 -3.86615
ltoes -25.4053
711
root 1.31607 18.5324 0.381207 71.2471 88.1934 58.2083
lowerback -10.1286 0.954115 -1.44265
upperback -3.9314 1.5709 -1.14952
thorax 1.58618 0.847243 -0.198296
lowerneck -18.1649 3.10984 5.78175
upperneck 22.9332 3.81887 -3.5893
head 10.5485 1.91175 -1.68414
rclavicle -7.03977e-015 -1.15295e-014
rhumerus -43.4076 16.7284 -94.1957
rradius 39.845
rwrist 3.01522
rhand -12.9976 7.14163
rfingers 7.12502
rthumb 13.0955 -22.4272
lclavicle -7.03977e-015 -1.15295e-014
lhumerus -96.6735 -44.3678 122.519
lradius 88.1797
lwrist -6.36185
lhand -33.2042 6.7198
lfingers 7.12502
lthumb -6.41135 36.6028
rfemur -6.842 -5.4614 15.5795
rtibia 1.59028e-014
rfoot -5.26346 6.07838
rtoes -10.9939
lfemur -14.9232 7.79148 -19.0818
ltibia 15.5902
lfoot -12.8211 -3.80637
ltoes -25.0157
712
root 1.31458 18.5324 0.38249 70.58 88.1694 57.5632
lowerback -10.0993 0.981704 -1.37103
upperback -3.93858 1.6008 -1.18018
thorax 1.56536 0.861683 -0.267537
lowerneck -17.8594 3.71573 6.20863
upperneck 23.0657 4.72907 -4.1165
head 10.6137 2.3119 -1.81306
rclavicle 9.27299e-015 4.37326e-015
rhumerus -43.4823 16.7692 -94.2641
rradius 39.8512
rwrist 3.02888
rhand -13.1466 6.98555
rfingers 7.12502
rthumb 12.9519 -22.5925
lclavicle 9.27299e-015 4.37326e-015
lhumerus -96.7756 -44.4697 122.632
lradius 88.1415
lwrist -6.33306
lhand -33.1411 6.79859
lfingers 7.12502
lthumb -6.35047 36.6834
rfemur -6.83031 -5.43133 15.5665
rtibia 2.8625e-014
rfoot -5.25619 6.04824
rtoes -10.8977
lfemur -14.8896 7.81481 -19.0991
ltibia 15.5577
lfoot -12.8334 -3.73098
ltoes -25.2824
713
root 1.31188 18.5323 0.382833 70.3164 88.0816 57.3121
lowerback -10.0391 1.0342 -1.35775
upperback -3.95696 1.66925 -1.22676
thorax 1.5148 0.896058 -0.317088
lowerneck -17.5919 4.31112 6.53691
upperneck 23.2655 5.63904 -4.55295
head 10.715 2.715 -1.89193
rclavicle -1.9001e-014 1.19271e-015
rhumerus -43.5098 16.7435 -94.2399
rradius 39.8318
rwrist 2.95601
rhand -13.0573 6.95811
rfingers 7.12502
rthumb 13.0379 -22.6144
lclavicle -1.9001e-014 1.19271e-015
lhumerus -96.8693 -44.588 122.729
lradius 88.1537
lwrist -6.29964
lhand -33.0064 6.4333
lfingers 7.12502
lthumb -6.22043 36.322
rfemur -6.84241 -5.39375 15.4803
rtibia -2.06736e-014
rfoot -5.25852 5.99848
rtoes -10.8546
lfemur -14.8502 7.76824 -19.1791
ltibia 15.5204
lfoot -12.9048 -3.5872
ltoes -25.8103
714
root 1.30782 18.5316 0.384694 70.0952 88.067 57.1055
lowerback -9.97174 1.09275 -1.28666
upperback -3.96014 1.73972 -1.27423
thorax 1.47794 0.930551 -0.399807
lowerneck -17.3455 4.9353 6.92695
upperneck 23.5159 6.57634 -4.96768
head 10.8511 3.13868 -1.96746
rclavicle -1.95554e-014 1.59028e-015
rhumerus -43.5181 16.6691 -94.2428
rradius 39.7606
rwrist 2.90439
rhand -12.9432 7.08424
rfingers 7.12502
rthumb 13.1479 -22.4812
lclavicle -1.95554e-014 1.59028e-015
lhumerus -97.0403 -44.7361 122.823
lradius 88.2366
lwrist -6.32013
lhand -32.997 6.22152
lfingers 7.12502
lthumb -6.21134 36.1105
rfemur -6.84684 -5.3796 15.4732
rtibia -1.98785e-014
rfoot -5.25836 6.01402
rtoes -10.7424
lfemur -14.8154 7.61371 -19.1716
ltibia 15.4834
lfoot -13.1131 -3.33769
ltoes -26.9061
715
root 1.30404 18.5321 0.388591 69.3084 88.0124 56.3284
lowerback -9.95924 1.1686 -1.25609
upperback -3.94777 1.83883 -1.33903
thorax 1.48683 0.979269 -0.473081
lowerneck -17.0155 5.58197 7.38831
upperneck 23.6653 7.54379 -5.42498
head 10.9505 3.5783 -2.06531
rclavicle 2.19999e-014 4.17448e-015
rhumerus -43.5189 16.6434 -94.2892
rradius 39.6936
rwrist 2.82588
rhand -12.9072 7.04773
rfingers 7.12502
rthumb 13.1826 -22.5155
lclavicle 2.19999e-014 4.17448e-015
lhumerus -97.2591 -44.9115 122.897
lradius 88.4356
lwrist -6.31642
lhand -33.0879 6.37753
lfingers 7.12502
lthumb -6.29907 36.2639
rfemur -6.85102 -5.33334 15.4379
rtibia 2.06736e-014
rfoot -5.2481 6.06892
rtoes -10.7689
lfemur -14.773 7.53025 -19.1926
ltibia 15.4259
lfoot -13.2031 -3.18289
ltoes -27.5224
